<mxfile host="Electron" modified="2023-10-21T19:32:53.496Z" agent="Mozilla/5.0 (X11; Linux x86_64) AppleWebKit/537.36 (KHTML, like Gecko) draw.io/22.0.3 Chrome/114.0.5735.289 Electron/25.8.4 Safari/537.36" etag="xPoKsS86i8RohJQsuRn3" version="22.0.3" type="device" pages="2">
  <diagram name="Networking Diagram" id="pQhTJsfI-4rvlNYygQ40">
    <mxGraphModel dx="1432" dy="849" grid="1" gridSize="10" guides="1" tooltips="1" connect="1" arrows="1" fold="1" page="1" pageScale="1" pageWidth="827" pageHeight="1169" background="none" math="0" shadow="1">
      <root>
        <mxCell id="0" />
        <mxCell id="1" parent="0" />
        <mxCell id="IvhrM6YkdjGCcLRlgH9k-34" value="Private 10.0.101.0/24" style="points=[[0,0],[0.25,0],[0.5,0],[0.75,0],[1,0],[1,0.25],[1,0.5],[1,0.75],[1,1],[0.75,1],[0.5,1],[0.25,1],[0,1],[0,0.75],[0,0.5],[0,0.25]];outlineConnect=0;gradientColor=none;html=1;whiteSpace=wrap;fontSize=12;fontStyle=0;container=1;pointerEvents=0;collapsible=0;recursiveResize=0;shape=mxgraph.aws4.group;grIcon=mxgraph.aws4.group_security_group;grStroke=0;strokeColor=#147EBA;fillColor=#E6F2F8;verticalAlign=top;align=left;spacingLeft=30;fontColor=#147EBA;dashed=0;" parent="1" vertex="1">
          <mxGeometry x="730" y="830" width="200" height="250" as="geometry" />
        </mxCell>
        <mxCell id="YbvnrrvpGzYcVY_p7r4L-5" value="VPC 10.0.0.0/16" style="points=[[0,0],[0.25,0],[0.5,0],[0.75,0],[1,0],[1,0.25],[1,0.5],[1,0.75],[1,1],[0.75,1],[0.5,1],[0.25,1],[0,1],[0,0.75],[0,0.5],[0,0.25]];outlineConnect=0;gradientColor=none;html=1;whiteSpace=wrap;fontSize=12;fontStyle=0;container=1;pointerEvents=0;collapsible=0;recursiveResize=0;shape=mxgraph.aws4.group;grIcon=mxgraph.aws4.group_vpc;strokeColor=#248814;fillColor=none;verticalAlign=top;align=left;spacingLeft=30;fontColor=#AAB7B8;dashed=0;" parent="1" vertex="1">
          <mxGeometry x="40" y="120" width="1030" height="1050" as="geometry" />
        </mxCell>
        <mxCell id="YbvnrrvpGzYcVY_p7r4L-11" value="Availability Zone" style="fillColor=none;strokeColor=#147EBA;dashed=1;verticalAlign=top;fontStyle=0;fontColor=#147EBA;whiteSpace=wrap;html=1;container=0;" parent="YbvnrrvpGzYcVY_p7r4L-5" vertex="1">
          <mxGeometry x="660" y="40" width="270" height="960" as="geometry" />
        </mxCell>
        <mxCell id="YbvnrrvpGzYcVY_p7r4L-6" value="Availability Zone" style="fillColor=none;strokeColor=#147EBA;dashed=1;verticalAlign=top;fontStyle=0;fontColor=#147EBA;whiteSpace=wrap;html=1;" parent="YbvnrrvpGzYcVY_p7r4L-5" vertex="1">
          <mxGeometry x="40" y="40" width="280" height="960" as="geometry" />
        </mxCell>
        <mxCell id="YbvnrrvpGzYcVY_p7r4L-7" value="Public 10.0.0.0/24" style="points=[[0,0],[0.25,0],[0.5,0],[0.75,0],[1,0],[1,0.25],[1,0.5],[1,0.75],[1,1],[0.75,1],[0.5,1],[0.25,1],[0,1],[0,0.75],[0,0.5],[0,0.25]];outlineConnect=0;gradientColor=none;html=1;whiteSpace=wrap;fontSize=12;fontStyle=0;container=1;pointerEvents=0;collapsible=0;recursiveResize=0;shape=mxgraph.aws4.group;grIcon=mxgraph.aws4.group_security_group;grStroke=0;strokeColor=#248814;fillColor=#E9F3E6;verticalAlign=top;align=left;spacingLeft=30;fontColor=#248814;dashed=0;" parent="YbvnrrvpGzYcVY_p7r4L-5" vertex="1">
          <mxGeometry x="80" y="390" width="200" height="240" as="geometry" />
        </mxCell>
        <mxCell id="YbvnrrvpGzYcVY_p7r4L-8" value="Private 10.0.100.0/24" style="points=[[0,0],[0.25,0],[0.5,0],[0.75,0],[1,0],[1,0.25],[1,0.5],[1,0.75],[1,1],[0.75,1],[0.5,1],[0.25,1],[0,1],[0,0.75],[0,0.5],[0,0.25]];outlineConnect=0;gradientColor=none;html=1;whiteSpace=wrap;fontSize=12;fontStyle=0;container=1;pointerEvents=0;collapsible=0;recursiveResize=0;shape=mxgraph.aws4.group;grIcon=mxgraph.aws4.group_security_group;grStroke=0;strokeColor=#147EBA;fillColor=#E6F2F8;verticalAlign=top;align=left;spacingLeft=30;fontColor=#147EBA;dashed=0;" parent="YbvnrrvpGzYcVY_p7r4L-5" vertex="1">
          <mxGeometry x="80" y="710" width="200" height="250" as="geometry" />
        </mxCell>
        <mxCell id="IvhrM6YkdjGCcLRlgH9k-1" style="edgeStyle=orthogonalEdgeStyle;rounded=0;orthogonalLoop=1;jettySize=auto;html=1;" parent="YbvnrrvpGzYcVY_p7r4L-5" source="YbvnrrvpGzYcVY_p7r4L-10" target="YbvnrrvpGzYcVY_p7r4L-27" edge="1">
          <mxGeometry relative="1" as="geometry" />
        </mxCell>
        <mxCell id="YbvnrrvpGzYcVY_p7r4L-20" value="Elastic IP" style="sketch=0;outlineConnect=0;fontColor=#232F3E;gradientColor=none;fillColor=#D45B07;strokeColor=none;dashed=0;verticalLabelPosition=bottom;verticalAlign=top;align=center;html=1;fontSize=12;fontStyle=0;aspect=fixed;pointerEvents=1;shape=mxgraph.aws4.elastic_ip_address;" parent="YbvnrrvpGzYcVY_p7r4L-5" vertex="1">
          <mxGeometry x="205" y="450" width="48" height="20" as="geometry" />
        </mxCell>
        <mxCell id="YbvnrrvpGzYcVY_p7r4L-10" value="EC2 Private" style="sketch=0;points=[[0,0,0],[0.25,0,0],[0.5,0,0],[0.75,0,0],[1,0,0],[0,1,0],[0.25,1,0],[0.5,1,0],[0.75,1,0],[1,1,0],[0,0.25,0],[0,0.5,0],[0,0.75,0],[1,0.25,0],[1,0.5,0],[1,0.75,0]];outlineConnect=0;fontColor=#232F3E;gradientColor=#F78E04;gradientDirection=north;fillColor=#D05C17;strokeColor=#ffffff;dashed=0;verticalLabelPosition=bottom;verticalAlign=top;align=center;html=1;fontSize=12;fontStyle=0;aspect=fixed;shape=mxgraph.aws4.resourceIcon;resIcon=mxgraph.aws4.compute;" parent="YbvnrrvpGzYcVY_p7r4L-5" vertex="1">
          <mxGeometry x="190" y="781" width="78" height="78" as="geometry" />
        </mxCell>
        <mxCell id="YbvnrrvpGzYcVY_p7r4L-27" value="NAT Gateway" style="sketch=0;outlineConnect=0;fontColor=#232F3E;gradientColor=none;fillColor=#4D27AA;strokeColor=none;dashed=0;verticalLabelPosition=bottom;verticalAlign=top;align=center;html=1;fontSize=12;fontStyle=0;aspect=fixed;pointerEvents=1;shape=mxgraph.aws4.nat_gateway;" parent="YbvnrrvpGzYcVY_p7r4L-5" vertex="1">
          <mxGeometry x="190" y="500" width="78" height="78" as="geometry" />
        </mxCell>
        <mxCell id="djJM0gKv6cDntd1zsPTY-2" value="Auto Scaling group" style="points=[[0,0],[0.25,0],[0.5,0],[0.75,0],[1,0],[1,0.25],[1,0.5],[1,0.75],[1,1],[0.75,1],[0.5,1],[0.25,1],[0,1],[0,0.75],[0,0.5],[0,0.25]];outlineConnect=0;gradientColor=none;html=1;whiteSpace=wrap;fontSize=12;fontStyle=0;container=1;pointerEvents=0;collapsible=0;recursiveResize=0;shape=mxgraph.aws4.groupCenter;grIcon=mxgraph.aws4.group_auto_scaling_group;grStroke=1;strokeColor=#D86613;fillColor=none;verticalAlign=top;align=center;fontColor=#D86613;dashed=1;spacingTop=25;" parent="YbvnrrvpGzYcVY_p7r4L-5" vertex="1">
          <mxGeometry x="150" y="770" width="700" height="120" as="geometry" />
        </mxCell>
        <mxCell id="auTAcQDVU2y74oTYfYM1-2" value="Security group" style="fillColor=none;strokeColor=#DD3522;verticalAlign=top;fontStyle=0;fontColor=#DD3522;whiteSpace=wrap;html=1;" parent="YbvnrrvpGzYcVY_p7r4L-5" vertex="1">
          <mxGeometry x="130" y="740" width="740" height="170" as="geometry" />
        </mxCell>
        <mxCell id="IvhrM6YkdjGCcLRlgH9k-32" value="Public 10.0.1.0/24" style="points=[[0,0],[0.25,0],[0.5,0],[0.75,0],[1,0],[1,0.25],[1,0.5],[1,0.75],[1,1],[0.75,1],[0.5,1],[0.25,1],[0,1],[0,0.75],[0,0.5],[0,0.25]];outlineConnect=0;gradientColor=none;html=1;whiteSpace=wrap;fontSize=12;fontStyle=0;container=1;pointerEvents=0;collapsible=0;recursiveResize=0;shape=mxgraph.aws4.group;grIcon=mxgraph.aws4.group_security_group;grStroke=0;strokeColor=#248814;fillColor=#E9F3E6;verticalAlign=top;align=left;spacingLeft=30;fontColor=#248814;dashed=0;" parent="YbvnrrvpGzYcVY_p7r4L-5" vertex="1">
          <mxGeometry x="690" y="400" width="200" height="230" as="geometry" />
        </mxCell>
        <mxCell id="IvhrM6YkdjGCcLRlgH9k-39" value="NAT Gateway" style="sketch=0;outlineConnect=0;fontColor=#232F3E;gradientColor=none;fillColor=#4D27AA;strokeColor=none;dashed=0;verticalLabelPosition=bottom;verticalAlign=top;align=center;html=1;fontSize=12;fontStyle=0;aspect=fixed;pointerEvents=1;shape=mxgraph.aws4.nat_gateway;" parent="IvhrM6YkdjGCcLRlgH9k-32" vertex="1">
          <mxGeometry x="12" y="106" width="78" height="78" as="geometry" />
        </mxCell>
        <mxCell id="IvhrM6YkdjGCcLRlgH9k-37" value="Elastic IP" style="sketch=0;outlineConnect=0;fontColor=#232F3E;gradientColor=none;fillColor=#D45B07;strokeColor=none;dashed=0;verticalLabelPosition=bottom;verticalAlign=top;align=center;html=1;fontSize=12;fontStyle=0;aspect=fixed;pointerEvents=1;shape=mxgraph.aws4.elastic_ip_address;" parent="IvhrM6YkdjGCcLRlgH9k-32" vertex="1">
          <mxGeometry x="27" y="60" width="48" height="20" as="geometry" />
        </mxCell>
        <mxCell id="djJM0gKv6cDntd1zsPTY-5" value="ELB" style="sketch=0;points=[[0,0,0],[0.25,0,0],[0.5,0,0],[0.75,0,0],[1,0,0],[0,1,0],[0.25,1,0],[0.5,1,0],[0.75,1,0],[1,1,0],[0,0.25,0],[0,0.5,0],[0,0.75,0],[1,0.25,0],[1,0.5,0],[1,0.75,0]];outlineConnect=0;fontColor=#232F3E;gradientColor=#945DF2;gradientDirection=north;fillColor=#5A30B5;strokeColor=#ffffff;dashed=0;verticalLabelPosition=bottom;verticalAlign=top;align=center;html=1;fontSize=12;fontStyle=0;aspect=fixed;shape=mxgraph.aws4.resourceIcon;resIcon=mxgraph.aws4.elastic_load_balancing;" parent="IvhrM6YkdjGCcLRlgH9k-32" vertex="1">
          <mxGeometry x="-250" y="80" width="78" height="78" as="geometry" />
        </mxCell>
        <mxCell id="auTAcQDVU2y74oTYfYM1-1" value="Security group" style="fillColor=none;strokeColor=#DD3522;verticalAlign=top;fontStyle=0;fontColor=#DD3522;whiteSpace=wrap;html=1;" parent="YbvnrrvpGzYcVY_p7r4L-5" vertex="1">
          <mxGeometry x="130" y="420" width="740" height="190" as="geometry" />
        </mxCell>
        <mxCell id="IvhrM6YkdjGCcLRlgH9k-42" style="edgeStyle=orthogonalEdgeStyle;rounded=0;orthogonalLoop=1;jettySize=auto;html=1;" parent="YbvnrrvpGzYcVY_p7r4L-5" source="IvhrM6YkdjGCcLRlgH9k-38" target="IvhrM6YkdjGCcLRlgH9k-39" edge="1">
          <mxGeometry relative="1" as="geometry" />
        </mxCell>
        <mxCell id="IvhrM6YkdjGCcLRlgH9k-38" value="EC2 Private" style="sketch=0;points=[[0,0,0],[0.25,0,0],[0.5,0,0],[0.75,0,0],[1,0,0],[0,1,0],[0.25,1,0],[0.5,1,0],[0.75,1,0],[1,1,0],[0,0.25,0],[0,0.5,0],[0,0.75,0],[1,0.25,0],[1,0.5,0],[1,0.75,0]];outlineConnect=0;fontColor=#232F3E;gradientColor=#F78E04;gradientDirection=north;fillColor=#D05C17;strokeColor=#ffffff;dashed=0;verticalLabelPosition=bottom;verticalAlign=top;align=center;html=1;fontSize=12;fontStyle=0;aspect=fixed;shape=mxgraph.aws4.resourceIcon;resIcon=mxgraph.aws4.compute;" parent="YbvnrrvpGzYcVY_p7r4L-5" vertex="1">
          <mxGeometry x="702" y="781" width="78" height="78" as="geometry" />
        </mxCell>
        <mxCell id="YbvnrrvpGzYcVY_p7r4L-16" value="Internet Gateway" style="sketch=0;outlineConnect=0;fontColor=#232F3E;gradientColor=none;fillColor=#4D27AA;strokeColor=none;dashed=0;verticalLabelPosition=bottom;verticalAlign=top;align=center;html=1;fontSize=12;fontStyle=0;aspect=fixed;pointerEvents=1;shape=mxgraph.aws4.internet_gateway;" parent="YbvnrrvpGzYcVY_p7r4L-5" vertex="1">
          <mxGeometry x="440" y="-20" width="78" height="78" as="geometry" />
        </mxCell>
        <mxCell id="YbvnrrvpGzYcVY_p7r4L-23" style="edgeStyle=orthogonalEdgeStyle;rounded=0;orthogonalLoop=1;jettySize=auto;html=1;" parent="YbvnrrvpGzYcVY_p7r4L-5" source="YbvnrrvpGzYcVY_p7r4L-7" target="YbvnrrvpGzYcVY_p7r4L-16" edge="1">
          <mxGeometry relative="1" as="geometry">
            <Array as="points">
              <mxPoint x="180" y="320" />
              <mxPoint x="370" y="320" />
              <mxPoint x="370" y="30" />
            </Array>
          </mxGeometry>
        </mxCell>
        <mxCell id="IvhrM6YkdjGCcLRlgH9k-5" style="edgeStyle=orthogonalEdgeStyle;rounded=0;orthogonalLoop=1;jettySize=auto;html=1;" parent="YbvnrrvpGzYcVY_p7r4L-5" source="YbvnrrvpGzYcVY_p7r4L-20" target="YbvnrrvpGzYcVY_p7r4L-16" edge="1">
          <mxGeometry relative="1" as="geometry">
            <Array as="points">
              <mxPoint x="230" y="20" />
            </Array>
          </mxGeometry>
        </mxCell>
        <mxCell id="IvhrM6YkdjGCcLRlgH9k-41" style="edgeStyle=orthogonalEdgeStyle;rounded=0;orthogonalLoop=1;jettySize=auto;html=1;" parent="YbvnrrvpGzYcVY_p7r4L-5" source="IvhrM6YkdjGCcLRlgH9k-37" target="YbvnrrvpGzYcVY_p7r4L-16" edge="1">
          <mxGeometry relative="1" as="geometry">
            <Array as="points">
              <mxPoint x="739" y="20" />
            </Array>
            <mxPoint x="629" y="20" as="targetPoint" />
          </mxGeometry>
        </mxCell>
        <mxCell id="IvhrM6YkdjGCcLRlgH9k-40" style="edgeStyle=orthogonalEdgeStyle;rounded=0;orthogonalLoop=1;jettySize=auto;html=1;" parent="1" source="YbvnrrvpGzYcVY_p7r4L-17" target="YbvnrrvpGzYcVY_p7r4L-16" edge="1">
          <mxGeometry relative="1" as="geometry">
            <Array as="points" />
          </mxGeometry>
        </mxCell>
        <mxCell id="auTAcQDVU2y74oTYfYM1-3" value="" style="edgeStyle=orthogonalEdgeStyle;rounded=0;orthogonalLoop=1;jettySize=auto;html=1;" parent="1" source="IvhrM6YkdjGCcLRlgH9k-32" target="YbvnrrvpGzYcVY_p7r4L-17" edge="1">
          <mxGeometry relative="1" as="geometry">
            <Array as="points">
              <mxPoint x="430" y="440" />
            </Array>
            <mxPoint x="870" y="510" as="sourcePoint" />
            <mxPoint x="430" y="158" as="targetPoint" />
          </mxGeometry>
        </mxCell>
        <mxCell id="YbvnrrvpGzYcVY_p7r4L-17" value="Public&lt;br&gt;Route Table" style="sketch=0;outlineConnect=0;fontColor=#232F3E;gradientColor=none;fillColor=#4D27AA;strokeColor=none;dashed=0;verticalLabelPosition=bottom;verticalAlign=top;align=center;html=1;fontSize=12;fontStyle=0;aspect=fixed;pointerEvents=1;shape=mxgraph.aws4.route_table;" parent="1" vertex="1">
          <mxGeometry x="390" y="320" width="78" height="76" as="geometry" />
        </mxCell>
      </root>
    </mxGraphModel>
  </diagram>
  <diagram id="I7Rgrcu_AO04xV5lg1Au" name="User Request Flow">
    <mxGraphModel dx="1432" dy="2018" grid="1" gridSize="10" guides="1" tooltips="1" connect="1" arrows="1" fold="1" page="1" pageScale="1" pageWidth="827" pageHeight="1169" math="0" shadow="0">
      <root>
        <mxCell id="0" />
        <mxCell id="1" parent="0" />
        <mxCell id="VSDfeJqwz46ZcL5OrFdG-7" style="edgeStyle=orthogonalEdgeStyle;rounded=0;orthogonalLoop=1;jettySize=auto;html=1;" parent="1" source="VSDfeJqwz46ZcL5OrFdG-1" target="VSDfeJqwz46ZcL5OrFdG-3" edge="1">
          <mxGeometry relative="1" as="geometry" />
        </mxCell>
        <mxCell id="VSDfeJqwz46ZcL5OrFdG-1" value="User" style="html=1;verticalLabelPosition=bottom;align=center;labelBackgroundColor=#ffffff;verticalAlign=top;strokeWidth=2;strokeColor=#0080F0;shadow=0;dashed=0;shape=mxgraph.ios7.icons.user;" parent="1" vertex="1">
          <mxGeometry x="40" y="90" width="30" height="30" as="geometry" />
        </mxCell>
        <mxCell id="mfCfXH4tg8SBmxcFgkA--2" value="443" style="edgeStyle=orthogonalEdgeStyle;rounded=0;orthogonalLoop=1;jettySize=auto;html=1;" parent="1" source="VSDfeJqwz46ZcL5OrFdG-3" target="mfCfXH4tg8SBmxcFgkA--1" edge="1">
          <mxGeometry relative="1" as="geometry" />
        </mxCell>
        <mxCell id="VSDfeJqwz46ZcL5OrFdG-3" value="https://&amp;lt;domain&amp;gt;/index.html&lt;br&gt;main page&lt;br&gt;&lt;br&gt;with links to games:&lt;br&gt;-&amp;gt;https://&amp;lt;domain&amp;gt;/2048&lt;br&gt;-&amp;gt;https://&amp;lt;domain&amp;gt;/floppybird&lt;br&gt;-&amp;gt;https://&amp;lt;domain&amp;gt;/pong&lt;br&gt;-&amp;gt;https://&amp;lt;domain&amp;gt;/tetris&lt;br&gt;-&amp;gt;https://&amp;lt;domain&amp;gt;/minesweeper&lt;br&gt;-&amp;gt;https://&amp;lt;domain&amp;gt;/pacman&lt;br&gt;-&amp;gt;https://&amp;lt;domain&amp;gt;/tictactoe" style="sketch=0;pointerEvents=1;shadow=0;dashed=0;html=1;strokeColor=none;fillColor=#434445;aspect=fixed;labelPosition=center;verticalLabelPosition=bottom;verticalAlign=top;align=center;outlineConnect=0;shape=mxgraph.vvd.web_browser;" parent="1" vertex="1">
          <mxGeometry x="223" y="79.5" width="71.83" height="51" as="geometry" />
        </mxCell>
        <mxCell id="u7tVXv07afgefEL7rcP5-4" value="port 80" style="edgeStyle=entityRelationEdgeStyle;rounded=0;orthogonalLoop=1;jettySize=auto;html=1;entryX=0;entryY=0.5;entryDx=0;entryDy=0;entryPerimeter=0;" parent="1" source="mfCfXH4tg8SBmxcFgkA--1" target="u7tVXv07afgefEL7rcP5-1" edge="1">
          <mxGeometry relative="1" as="geometry" />
        </mxCell>
        <mxCell id="mfCfXH4tg8SBmxcFgkA--1" value="Application Load Balancer&lt;br&gt;using path-based routing" style="sketch=0;points=[[0,0,0],[0.25,0,0],[0.5,0,0],[0.75,0,0],[1,0,0],[0,1,0],[0.25,1,0],[0.5,1,0],[0.75,1,0],[1,1,0],[0,0.25,0],[0,0.5,0],[0,0.75,0],[1,0.25,0],[1,0.5,0],[1,0.75,0]];outlineConnect=0;fontColor=#232F3E;gradientColor=#945DF2;gradientDirection=north;fillColor=#5A30B5;strokeColor=#ffffff;dashed=0;verticalLabelPosition=bottom;verticalAlign=top;align=center;html=1;fontSize=12;fontStyle=0;aspect=fixed;shape=mxgraph.aws4.resourceIcon;resIcon=mxgraph.aws4.elastic_load_balancing;" parent="1" vertex="1">
          <mxGeometry x="494" y="66" width="78" height="78" as="geometry" />
        </mxCell>
        <mxCell id="u7tVXv07afgefEL7rcP5-2" value="Auto Scaling group" style="points=[[0,0],[0.25,0],[0.5,0],[0.75,0],[1,0],[1,0.25],[1,0.5],[1,0.75],[1,1],[0.75,1],[0.5,1],[0.25,1],[0,1],[0,0.75],[0,0.5],[0,0.25]];outlineConnect=0;gradientColor=none;html=1;whiteSpace=wrap;fontSize=12;fontStyle=0;container=1;pointerEvents=0;collapsible=0;recursiveResize=0;shape=mxgraph.aws4.groupCenter;grIcon=mxgraph.aws4.group_auto_scaling_group;grStroke=1;strokeColor=#D86613;fillColor=none;verticalAlign=top;align=center;fontColor=#D86613;dashed=1;spacingTop=25;" parent="1" vertex="1">
          <mxGeometry x="760" y="-103" width="440" height="400" as="geometry" />
        </mxCell>
        <mxCell id="u7tVXv07afgefEL7rcP5-1" value="EC2" style="sketch=0;points=[[0,0,0],[0.25,0,0],[0.5,0,0],[0.75,0,0],[1,0,0],[0,1,0],[0.25,1,0],[0.5,1,0],[0.75,1,0],[1,1,0],[0,0.25,0],[0,0.5,0],[0,0.75,0],[1,0.25,0],[1,0.5,0],[1,0.75,0]];outlineConnect=0;fontColor=#232F3E;gradientColor=#F78E04;gradientDirection=north;fillColor=#D05C17;strokeColor=#ffffff;dashed=0;verticalLabelPosition=bottom;verticalAlign=top;align=center;html=1;fontSize=12;fontStyle=0;aspect=fixed;shape=mxgraph.aws4.resourceIcon;resIcon=mxgraph.aws4.compute;" parent="u7tVXv07afgefEL7rcP5-2" vertex="1">
          <mxGeometry x="40" y="82.5" width="78" height="78" as="geometry" />
        </mxCell>
        <mxCell id="u7tVXv07afgefEL7rcP5-3" value="EC2" style="sketch=0;points=[[0,0,0],[0.25,0,0],[0.5,0,0],[0.75,0,0],[1,0,0],[0,1,0],[0.25,1,0],[0.5,1,0],[0.75,1,0],[1,1,0],[0,0.25,0],[0,0.5,0],[0,0.75,0],[1,0.25,0],[1,0.5,0],[1,0.75,0]];outlineConnect=0;fontColor=#232F3E;gradientColor=#F78E04;gradientDirection=north;fillColor=#D05C17;strokeColor=#ffffff;dashed=0;verticalLabelPosition=bottom;verticalAlign=top;align=center;html=1;fontSize=12;fontStyle=0;aspect=fixed;shape=mxgraph.aws4.resourceIcon;resIcon=mxgraph.aws4.compute;" parent="u7tVXv07afgefEL7rcP5-2" vertex="1">
          <mxGeometry x="40" y="281" width="78" height="78" as="geometry" />
        </mxCell>
        <mxCell id="u7tVXv07afgefEL7rcP5-6" value="web server hosting sites on port 80 (virtual hosts):&lt;br&gt;- main page index.html&lt;br&gt;- 2048&lt;br&gt;- floppybird&lt;br style=&quot;border-color: var(--border-color); text-align: center;&quot;&gt;&lt;span style=&quot;text-align: center;&quot;&gt;- pong&lt;/span&gt;&lt;br style=&quot;border-color: var(--border-color); text-align: center;&quot;&gt;&lt;span style=&quot;text-align: center;&quot;&gt;- tetris&lt;/span&gt;&lt;br style=&quot;border-color: var(--border-color); text-align: center;&quot;&gt;&lt;span style=&quot;text-align: center;&quot;&gt;- minesweeper&lt;/span&gt;&lt;br style=&quot;border-color: var(--border-color); text-align: center;&quot;&gt;&lt;span style=&quot;text-align: center;&quot;&gt;- pacman&lt;/span&gt;&lt;br style=&quot;border-color: var(--border-color); text-align: center;&quot;&gt;&lt;span style=&quot;text-align: center;&quot;&gt;- tictactoe&lt;/span&gt;" style="text;strokeColor=none;fillColor=none;align=left;verticalAlign=middle;spacingLeft=4;spacingRight=4;overflow=hidden;points=[[0,0.5],[1,0.5]];portConstraint=eastwest;rotatable=0;whiteSpace=wrap;html=1;" parent="u7tVXv07afgefEL7rcP5-2" vertex="1">
          <mxGeometry x="130" y="59.25" width="280" height="140.75" as="geometry" />
        </mxCell>
        <mxCell id="1jhK4oiiIzVhk6-us7Xp-3" value="web server hosting sites on port 80 (virtual hosts):&lt;br&gt;- main page index.html&lt;br&gt;- 2048&lt;br&gt;- floppybird&lt;br style=&quot;border-color: var(--border-color); text-align: center;&quot;&gt;&lt;span style=&quot;text-align: center;&quot;&gt;- pong&lt;/span&gt;&lt;br style=&quot;border-color: var(--border-color); text-align: center;&quot;&gt;&lt;span style=&quot;text-align: center;&quot;&gt;- tetris&lt;/span&gt;&lt;br style=&quot;border-color: var(--border-color); text-align: center;&quot;&gt;&lt;span style=&quot;text-align: center;&quot;&gt;- minesweeper&lt;/span&gt;&lt;br style=&quot;border-color: var(--border-color); text-align: center;&quot;&gt;&lt;span style=&quot;text-align: center;&quot;&gt;- pacman&lt;/span&gt;&lt;br style=&quot;border-color: var(--border-color); text-align: center;&quot;&gt;&lt;span style=&quot;text-align: center;&quot;&gt;- tictactoe&lt;/span&gt;" style="text;strokeColor=none;fillColor=none;align=left;verticalAlign=middle;spacingLeft=4;spacingRight=4;overflow=hidden;points=[[0,0.5],[1,0.5]];portConstraint=eastwest;rotatable=0;whiteSpace=wrap;html=1;" vertex="1" parent="u7tVXv07afgefEL7rcP5-2">
          <mxGeometry x="130" y="243" width="280" height="140.75" as="geometry" />
        </mxCell>
        <mxCell id="u7tVXv07afgefEL7rcP5-5" value="port 80" style="rounded=0;orthogonalLoop=1;jettySize=auto;html=1;entryX=0;entryY=0.5;entryDx=0;entryDy=0;entryPerimeter=0;edgeStyle=entityRelationEdgeStyle;" parent="1" source="mfCfXH4tg8SBmxcFgkA--1" target="u7tVXv07afgefEL7rcP5-3" edge="1">
          <mxGeometry relative="1" as="geometry" />
        </mxCell>
      </root>
    </mxGraphModel>
  </diagram>
</mxfile>
